<svg width="24" height="24" viewBox="0 0 24 24" fill="none" xmlns="http://www.w3.org/2000/svg">
<path d="M22.2075 2.45531C22.0913 2.35497 21.9499 2.28824 21.7986 2.2623C21.6473 2.23636 21.4917 2.25221 21.3487 2.30813L2.34937 9.74344C2.0801 9.84814 1.85214 10.0375 1.6998 10.283C1.54745 10.5284 1.47898 10.8168 1.50468 11.1045C1.53037 11.3923 1.64886 11.6639 1.84229 11.8785C2.03572 12.0931 2.29362 12.239 2.57718 12.2944L7.49999 13.2609V18.75C7.49902 19.049 7.58787 19.3414 7.75503 19.5893C7.92219 19.8372 8.15995 20.0291 8.43749 20.1403C8.71461 20.2535 9.01936 20.2806 9.31213 20.2183C9.60489 20.1559 9.87211 20.0069 10.0791 19.7906L12.4528 17.3288L16.2187 20.625C16.4904 20.866 16.8409 20.9994 17.2041 21C17.3632 20.9999 17.5214 20.9749 17.6728 20.9259C17.9203 20.8474 18.1428 20.7054 18.3183 20.5141C18.4938 20.3228 18.6162 20.0889 18.6731 19.8356L22.4784 3.28125C22.5125 3.13195 22.5052 2.97621 22.4575 2.83071C22.4098 2.68521 22.3234 2.55544 22.2075 2.45531ZM16.4756 5.83031L8.07656 11.8453L3.42656 10.9331L16.4756 5.83031ZM8.99999 18.75V14.2988L11.3241 16.3369L8.99999 18.75ZM17.2059 19.5L9.45468 12.7031L20.6109 4.70719L17.2059 19.5Z" fill="#1B5962"/>
</svg>
