<svg width="59" height="19" viewBox="0 0 59 19" fill="none" xmlns="http://www.w3.org/2000/svg">
<path d="M54.1776 1.1286H50.5431C49.4443 1.1286 48.5991 1.46669 48.0919 2.5655L41.161 18.3715H46.0634C46.0634 18.3715 46.9086 16.2584 47.0776 15.7512C47.5848 15.7512 52.4026 15.7512 53.0788 15.7512C53.2479 16.3429 53.6705 18.2869 53.6705 18.2869H58.0657L54.1776 1.1286ZM48.43 12.2012C48.8526 11.1869 50.2895 7.38336 50.2895 7.38336C50.2895 7.46788 50.7122 6.36907 50.8812 5.77741L51.2193 7.29883C51.2193 7.29883 52.1491 11.4405 52.3181 12.2857H48.43V12.2012Z" fill="#FAFAFA"/>
<path d="M41.4985 12.7083C41.4985 16.2583 38.2866 18.625 33.2997 18.625C31.1866 18.625 29.1581 18.2024 28.0593 17.6952L28.7355 13.8071L29.3271 14.0607C30.8486 14.7369 31.8628 14.9905 33.7224 14.9905C35.0747 14.9905 36.5116 14.4833 36.5116 13.3C36.5116 12.5393 35.92 12.0321 34.0605 11.1869C32.2855 10.3417 29.9188 8.98929 29.9188 6.5381C29.9188 3.15714 33.2152 0.875 37.864 0.875C39.639 0.875 41.1605 1.2131 42.0902 1.63571L41.414 5.35476L41.0759 5.01667C40.2307 4.67857 39.1319 4.34048 37.5259 4.34048C35.7509 4.425 34.9057 5.18571 34.9057 5.8619C34.9057 6.62262 35.92 7.21429 37.5259 7.975C40.2307 9.24286 41.4985 10.6798 41.4985 12.7083Z" fill="#FAFAFA"/>
<path d="M0.25 1.29786L0.334524 0.959764H7.60357C8.61786 0.959764 9.37857 1.29786 9.63214 2.39667L11.2381 10.0038C9.63214 5.94667 5.9131 2.65024 0.25 1.29786Z" fill="#FAFAFA" fill-opacity="0.7"/>
<path d="M21.465 1.12853L14.1114 18.2869H9.12448L4.89828 3.91782C7.94114 5.86186 10.4769 8.90472 11.4066 11.0178L11.9138 12.7928L16.478 1.04401H21.465V1.12853Z" fill="#FAFAFA"/>
<path d="M23.4101 1.04401H28.0589L25.1005 18.2869H20.4517L23.4101 1.04401Z" fill="#FAFAFA"/>
</svg>
