<svg width="295" height="18" viewBox="0 0 295 18" fill="none" xmlns="http://www.w3.org/2000/svg">
<path d="M6.50499 14.8498V0L1.09512 0C0.525656 0 0 0.306632 0 1.09512C0 1.8836 0.525656 2.19023 1.09512 2.19023H4.31475V14.8498H1.09512C0.525656 14.8498 0 15.1564 0 15.9449C0 16.7334 0.525656 17.04 1.09512 17.04H9.72463C10.2941 17.04 10.8197 16.7334 10.8197 15.9449V10.4255C10.8197 9.79033 10.535 9.33038 9.72463 9.33038C8.91424 9.33038 8.62951 9.79033 8.62951 10.4255V14.8498H6.50499Z" fill="#FAFAFA"/>
<path d="M17.9539 9.61512H24.1304C24.8531 9.61512 25.3569 9.5056 25.9044 9.00185C26.5177 8.43239 26.5834 7.84103 26.5834 7.05255V2.56257C26.5834 1.77409 26.5177 1.18273 25.9044 0.613265C25.3569 0.109512 24.8531 0 24.1304 0L16.8588 0C16.2893 0 15.7637 0.306632 15.7637 1.09512C15.7637 1.8836 16.2893 2.19023 16.8588 2.19023H24.3932V7.42488H18.2386C16.596 7.42488 15.7637 8.25717 15.7637 9.89985V17.04H25.4883C26.0578 17.04 26.5834 16.7334 26.5834 15.9449C26.5834 15.1564 26.0578 14.8498 25.4883 14.8498H17.9539V9.61512Z" fill="#FAFAFA"/>
<path d="M40.1569 2.19023V5.82602C40.1569 7.05255 39.675 7.42488 39.0617 7.42488H34.7689C34.1994 7.42488 33.6738 7.73152 33.6738 8.52C33.6738 9.30848 34.1994 9.61512 34.7689 9.61512H39.0617C39.675 9.61512 40.1569 9.98746 40.1569 11.214V14.8498H32.6225C32.053 14.8498 31.5273 15.1564 31.5273 15.9449C31.5273 16.7334 32.053 17.04 32.6225 17.04H40.1569C41.4053 17.04 42.3471 16.0982 42.3471 14.8498V10.6445C42.3471 9.76843 42.1719 9.13326 41.4929 8.52C42.1719 7.90674 42.3471 7.27157 42.3471 6.39548V2.19023C42.3471 0.9418 41.4053 0 40.1569 0L32.6225 0C32.053 0 31.5273 0.306632 31.5273 1.09512C31.5273 1.8836 32.053 2.19023 32.6225 2.19023H40.1569Z" fill="#FAFAFA"/>
<path d="M50.5764 9.28658V1.09512C50.5764 0.547559 50.3135 0 49.4812 0C48.649 0 48.3861 0.547559 48.3861 1.09512V11.4768H54.8254V15.9449C54.8254 16.6458 55.132 17.04 55.9205 17.04C56.709 17.04 57.0156 16.6458 57.0156 15.9449V11.4768C57.5851 11.4768 58.1108 11.1702 58.1108 10.3817C58.1108 9.59321 57.5851 9.28658 57.0156 9.28658V2.95681C57.0156 2.40925 56.7528 1.8617 55.9205 1.8617C55.0882 1.8617 54.8254 2.40925 54.8254 2.95681V9.28658H50.5764Z" fill="#FAFAFA"/>
<path d="M83.1769 2.19023H88.543C89.1125 2.19023 89.6381 1.8836 89.6381 1.09512C89.6381 0.306632 89.1125 0 88.543 0L80.9867 0V9.61512H87.4479V14.8498H82.3884C82.038 14.8498 81.5343 14.5431 81.2276 14.4117L80.5705 14.127C80.3296 14.0175 80.1325 13.9518 79.8697 13.9518C79.3002 13.9518 78.8184 14.4774 78.8184 15.0469C78.8184 15.8135 79.4754 16.0106 80.0668 16.2734L80.8991 16.6458C81.4466 16.8867 81.7752 17.04 82.3446 17.04H87.207C87.9954 17.04 88.5649 16.9524 89.1124 16.2953C89.5724 15.7478 89.6381 15.2659 89.6381 14.5869V9.89985C89.6381 9.13326 89.5724 8.60761 88.9591 8.03815C88.4335 7.5344 87.9078 7.42488 87.207 7.42488H83.1769V2.19023Z" fill="#FAFAFA"/>
<path d="M96.7723 2.19023C97.4074 2.19023 97.8674 1.75219 97.8674 1.09512C97.8674 0.525656 97.4074 0 96.838 0L95.5238 0C94.7573 0 94.582 0.591363 94.582 1.09512V15.6602C94.582 16.6677 94.9763 17.04 96.0057 17.04H103.978C104.964 17.04 105.402 16.6896 105.402 15.6602V10.754C105.402 9.74653 105.183 9.28658 104.088 9.28658H96.7723V2.19023ZM103.212 11.4768V14.8498H96.7723V11.4768H103.212Z" fill="#FAFAFA"/>
<path d="M118.975 2.19023V5.21275C118.975 6.17645 119.019 6.15455 118.296 6.78972L115.274 9.39609C114.726 9.87794 114.704 9.94365 114.704 10.6664V15.9449C114.704 16.6458 115.011 17.04 115.799 17.04C116.588 17.04 116.895 16.6458 116.895 15.9449V11.6958C116.895 10.9293 116.938 10.8854 117.508 10.3817L120.574 7.73152C121.187 7.20586 121.165 7.11825 121.165 6.35167V0L111.441 0C110.74 0 110.346 0.613265 110.346 1.09512V2.19023C110.346 2.67208 110.74 3.28535 111.441 3.28535C112.142 3.28535 112.536 2.67208 112.536 2.19023H118.975Z" fill="#FAFAFA"/>
<path d="M130.49 7.42488V2.19023H132.549V7.42488H130.49ZM129.395 0C128.65 0 128.3 0.525656 128.3 1.09512V7.42488C127.621 7.42488 127.095 7.66581 126.701 8.03815C126.307 8.41049 126.109 8.95805 126.109 9.63702V14.8498C126.109 16.1858 126.942 17.04 128.3 17.04H134.739C136.097 17.04 136.929 16.1858 136.929 14.8498V9.63702C136.929 8.95805 136.732 8.41049 136.338 8.03815C135.944 7.66581 135.418 7.42488 134.739 7.42488V1.09512C134.739 0.525656 134.388 0 133.644 0L129.395 0ZM128.3 14.8498V9.61512H134.739V14.8498H128.3Z" fill="#FAFAFA"/>
<path d="M166.266 14.8498C165.631 14.8498 165.171 15.2878 165.171 15.9449C165.171 16.5362 165.609 17.04 166.266 17.04H167.361C168.018 17.04 168.456 16.5362 168.456 15.9449V1.09512C168.456 0.525656 167.975 0 167.361 0L158.732 0C158.119 0 157.637 0.525656 157.637 1.09512V6.70211C157.637 7.27157 158.119 7.79722 158.732 7.79722H166.266V14.8498ZM159.827 5.60699V2.19023H166.266V5.60699H159.827Z" fill="#FAFAFA"/>
<path d="M175.591 0C174.386 0 173.4 0.985604 173.4 2.19023V14.8498C173.4 16.0763 174.342 17.04 175.591 17.04H182.03C183.278 17.04 184.22 16.0763 184.22 14.8498V2.19023C184.22 0.985604 183.235 0 182.03 0L175.591 0ZM175.591 14.8498V2.19023H182.03V14.8498H175.591Z" fill="#FAFAFA"/>
<path d="M191.354 0C190.15 0 189.164 0.985604 189.164 2.19023V14.8498C189.164 16.0763 190.106 17.04 191.354 17.04H197.794C199.042 17.04 199.984 16.0763 199.984 14.8498V2.19023C199.984 0.985604 198.998 0 197.794 0L191.354 0ZM191.354 14.8498V2.19023H197.794V14.8498H191.354Z" fill="#FAFAFA"/>
<path d="M207.118 0C205.913 0 204.928 0.985604 204.928 2.19023V14.8498C204.928 16.0763 205.87 17.04 207.118 17.04H213.557C214.806 17.04 215.747 16.0763 215.747 14.8498V2.19023C215.747 0.985604 214.762 0 213.557 0L207.118 0ZM207.118 14.8498V2.19023H213.557V14.8498H207.118Z" fill="#FAFAFA"/>
<path d="M238.645 0C237.441 0 236.455 0.985604 236.455 2.19023V14.8498C236.455 16.0763 237.397 17.04 238.645 17.04H245.085C246.333 17.04 247.275 16.0763 247.275 14.8498V2.19023C247.275 0.985604 246.289 0 245.085 0L238.645 0ZM238.645 14.8498V2.19023H245.085V14.8498H238.645Z" fill="#FAFAFA"/>
<path d="M254.409 0C253.204 0 252.219 0.985604 252.219 2.19023V14.8498C252.219 16.0763 253.161 17.04 254.409 17.04H260.848C262.097 17.04 263.038 16.0763 263.038 14.8498V2.19023C263.038 0.985604 262.053 0 260.848 0L254.409 0ZM254.409 14.8498V2.19023H260.848V14.8498H254.409Z" fill="#FAFAFA"/>
<path d="M270.173 0C268.968 0 267.982 0.985604 267.982 2.19023V14.8498C267.982 16.0763 268.924 17.04 270.173 17.04H276.612C277.86 17.04 278.802 16.0763 278.802 14.8498V2.19023C278.802 0.985604 277.817 0 276.612 0L270.173 0ZM270.173 14.8498V2.19023H276.612V14.8498H270.173Z" fill="#FAFAFA"/>
<path d="M285.936 0C284.732 0 283.746 0.985604 283.746 2.19023V14.8498C283.746 16.0763 284.688 17.04 285.936 17.04H292.376C293.624 17.04 294.566 16.0763 294.566 14.8498V2.19023C294.566 0.985604 293.58 0 292.376 0L285.936 0ZM285.936 14.8498V2.19023H292.376V14.8498H285.936Z" fill="#FAFAFA"/>
</svg>
