<svg width="24" height="23" viewBox="0 0 24 23" fill="none" xmlns="http://www.w3.org/2000/svg">
<g clip-path="url(#clip0_231_5930)">
<path d="M3.98353 8.733C4.26753 9.088 4.48053 9.514 4.62253 9.94C4.76453 10.366 4.83553 10.863 4.83553 11.36C4.83553 11.857 4.76453 12.354 4.62253 12.78C4.48053 13.206 4.26753 13.632 3.98353 13.987C3.62853 14.484 3.69953 15.194 4.19653 15.549C4.69353 15.904 5.40353 15.833 5.75853 15.336C6.18453 14.768 6.46853 14.2 6.75253 13.49C7.03653 12.78 7.10753 12.07 7.10753 11.36C7.10753 10.65 6.96553 9.94 6.75253 9.23C6.53953 8.591 6.18453 7.952 5.75853 7.384C5.40353 6.887 4.69353 6.816 4.19653 7.171C3.69953 7.526 3.62853 8.236 3.98353 8.733Z" fill="#FAFAFA"/>
<path d="M7.88853 6.674C8.74053 8.023 9.23753 9.656 9.23753 11.36C9.23753 13.064 8.74053 14.697 7.88853 16.046C7.53353 16.543 7.74653 17.253 8.24353 17.608C8.81153 17.963 9.45053 17.75 9.80553 17.253C10.8705 15.549 11.5095 13.561 11.5095 11.36C11.5095 9.23 10.8705 7.171 9.80553 5.467C9.45053 4.97 8.74053 4.757 8.24353 5.112C7.74653 5.467 7.53353 6.106 7.88853 6.674Z" fill="#FAFAFA"/>
<path d="M12.0065 4.544C13.2135 6.532 13.8525 8.875 13.8525 11.36C13.8525 13.845 13.1425 16.188 12.0065 18.176C11.7225 18.744 11.8645 19.383 12.4325 19.738C13.0005 20.022 13.6395 19.88 13.9945 19.312C15.4145 16.969 16.1955 14.271 16.1955 11.36C16.1955 8.449 15.4145 5.751 13.9945 3.408C13.7105 2.84 13.0005 2.698 12.4325 2.982C11.8645 3.337 11.7225 3.976 12.0065 4.544Z" fill="#FAFAFA"/>
<path d="M16.1245 2.414C17.6155 5.041 18.5385 8.094 18.5385 11.36C18.5385 14.626 17.6865 17.679 16.1245 20.306C15.8405 20.874 15.9825 21.513 16.5505 21.868C17.1185 22.152 17.7575 22.01 18.1125 21.442C19.8165 18.46 20.8105 15.052 20.8105 11.36C20.8105 7.668 19.8165 4.26 18.1125 1.278C17.8285 0.71 17.1185 0.568 16.5505 0.852C15.9825 1.136 15.8405 1.846 16.1245 2.414Z" fill="#FAFAFA"/>
</g>
<defs>
<clipPath id="clip0_231_5930">
<rect width="22.72" height="22.72" fill="white" transform="translate(0.929993)"/>
</clipPath>
</defs>
</svg>
